<?xml version="1.0" encoding="UTF-8"?> <svg xmlns="http://www.w3.org/2000/svg" width="233" height="54" viewBox="0 0 233 54" fill="none"><g clip-path="url(#clip0_3_18850)"><path d="M81.528 29.5409H87.5894V41.313C84.4282 43.7145 80.0779 45 75.9748 45C66.948 45 61.2363 38.742 61.2363 29.9976C61.2363 21.2533 66.948 15 76.1007 15C81.1457 15 85.3327 16.7376 88.1209 20.0102L83.8547 23.9892C81.9728 21.8497 79.2603 20.646 76.4271 20.693C70.832 20.693 67.9645 24.4601 67.9645 29.9741C67.9645 35.4034 70.846 39.2552 76.3572 39.2552C78.1544 39.3059 79.9346 38.8909 81.528 38.0498V29.5409Z" fill="#0097D4"></path><path d="M105.995 21.4726L97.8296 43.5H91.1094L102.807 15H109.265L120.981 43.5H114.1L105.995 21.4726Z" fill="#0097D4"></path><path d="M147.726 43.5L147.685 26.3815L140.324 40.4881H137.412L130.111 26.7655V43.5H123.969V15H129.354L138.959 32.7107L148.41 15H153.749L153.841 43.5H147.726Z" fill="#0097D4"></path><path d="M198.941 33.4047V43.5H192.335V33.3214L182.219 15H189.227L195.925 27.6631L202.618 15H209.103L198.941 33.4047Z" fill="#0097D4"></path><path d="M218.715 38.3679V31.9706H232.467V27H218.715H212.09V43.5H233V38.3679H218.715Z" fill="#0097D4"></path><path d="M233 21V15H212.09V21H218.889H233Z" fill="#0097D4"></path><path d="M167.939 38.3679V31.9706H181.685V27H167.939H161.309V43.5H182.219V38.3679H167.939Z" fill="#0097D4"></path><path d="M180.725 21V15H159.814V21H166.618H180.725Z" fill="#0097D4"></path><path d="M48.7102 22.2191L44.3923 19.0536C44.1873 16.0748 43.4547 13.1562 42.2286 10.4336C40.7784 7.2634 38.3536 4.01399 34.3014 2.20513C31.2802 0.779035 27.9851 0.0266187 24.6442 0C21.3003 0.0263087 18.0021 0.778707 14.9777 2.20513C5.32987 6.52681 4.8962 19.0536 4.8962 19.0536L0.578218 22.2191L0.153881 34.7179L0 39.2121L4.75165 41.2308C4.75165 41.2308 5.89876 45.7343 7.62875 48.3776C9.35874 51.021 16.9968 54 24.6582 54C32.3196 54 39.925 51.021 41.6597 48.3776C43.3944 45.7343 44.5321 41.2308 44.5321 41.2308L49.2885 39.2121L48.7102 22.2191ZM31.0699 46.1538C29.9601 46.1538 30.1373 45.8042 30.1373 45.296V39.1608H19.1185V45.2774C19.1185 45.5758 19.291 46.1492 18.3584 46.1492C8.8085 45.5618 9.21885 33.8462 9.21885 33.8462V18.1492C9.21885 7.2028 18.0787 4.47552 18.0087 4.47552C17.9388 4.47552 21.45 3.17949 24.6023 3.32401C27.8011 3.17949 31.2424 4.47552 31.2424 4.47552C34.8293 5.85273 37.6608 8.69039 39.0297 12.2797C39.7244 14.1576 40.0674 16.1472 40.0416 18.1492V33.8462C40.0416 33.8462 40.4473 45.4172 31.0699 46.1538Z" fill="#0097D4"></path></g><defs><clipPath id="clip0_3_18850"><rect width="233" height="54" fill="white"></rect></clipPath></defs></svg> 